<svg width="46" height="50" viewBox="0 0 46 50" fill="none" xmlns="http://www.w3.org/2000/svg">
<path d="M32.3333 6.33325C37.4083 6.36125 40.157 6.58758 41.949 8.37959C44 10.4306 44 13.7299 44 20.3286V34.3286C44 40.9296 44 44.2289 41.949 46.2799C39.9003 48.3286 36.5987 48.3286 30 48.3286H16C9.40133 48.3286 6.09967 48.3286 4.051 46.2799C2 44.2266 2 40.9296 2 34.3286V20.3286C2 13.7299 2 10.4306 4.051 8.37959C5.843 6.58758 8.59167 6.36125 13.6667 6.33325" stroke="#566AED" stroke-width="2.5"/>
<path d="M16 28.2666L19.9993 32L30 22.6666" stroke="#566AED" stroke-width="2.5" stroke-linecap="round" stroke-linejoin="round"/>
<path d="M13.6667 5.16663C13.6667 4.23837 14.0354 3.34813 14.6918 2.69175C15.3482 2.03538 16.2384 1.66663 17.1667 1.66663H28.8334C29.7616 1.66663 30.6518 2.03538 31.3082 2.69175C31.9646 3.34813 32.3334 4.23837 32.3334 5.16663V7.49996C32.3334 8.42822 31.9646 9.31846 31.3082 9.97483C30.6518 10.6312 29.7616 11 28.8334 11H17.1667C16.2384 11 15.3482 10.6312 14.6918 9.97483C14.0354 9.31846 13.6667 8.42822 13.6667 7.49996V5.16663Z" stroke="#566AED" stroke-width="2.5"/>
</svg>
