<svg width="46" height="46" viewBox="0 0 46 46" fill="none" xmlns="http://www.w3.org/2000/svg">
<path d="M17.8223 4.07668C19.1383 2.95668 19.7963 2.39668 20.4823 2.06768C21.2681 1.69196 22.1279 1.49695 22.9988 1.49695C23.8698 1.49695 24.7296 1.69196 25.5153 2.06768C26.2037 2.39434 26.8617 2.95434 28.1753 4.07668C28.7003 4.52468 28.9617 4.74634 29.2417 4.93301C29.8829 5.36275 30.603 5.66096 31.3603 5.81034C31.6893 5.87568 32.0323 5.90368 32.7183 5.95968C34.4427 6.09501 35.3037 6.16501 36.0223 6.41934C36.8432 6.70902 37.5888 7.17874 38.2045 7.79405C38.8203 8.40937 39.2905 9.15468 39.5807 9.97534C39.835 10.6963 39.9027 11.5573 40.0403 13.2793C40.094 13.9653 40.122 14.3083 40.1873 14.6397C40.3367 15.3957 40.6354 16.1167 41.0647 16.756C41.2514 17.036 41.4753 17.2973 41.921 17.8223C43.041 19.1383 43.6034 19.7963 43.9324 20.4823C44.3081 21.2681 44.5031 22.1279 44.5031 22.9988C44.5031 23.8698 44.3081 24.7296 43.9324 25.5153C43.6057 26.2013 43.0433 26.8593 41.921 28.1753C41.6159 28.5146 41.33 28.8706 41.0647 29.2417C40.6351 29.8821 40.3368 30.6015 40.1873 31.358C40.122 31.6893 40.094 32.0323 40.0403 32.7183C39.9027 34.4403 39.835 35.3037 39.5807 36.0223C39.2905 36.843 38.8203 37.5883 38.2045 38.2036C37.5888 38.819 36.8432 39.2887 36.0223 39.5783C35.3037 39.835 34.4427 39.9027 32.7183 40.038C32.0323 40.094 31.6917 40.122 31.3603 40.1873C30.603 40.3367 29.8829 40.6349 29.2417 41.0647C28.8714 41.3301 28.5161 41.616 28.1777 41.921C26.8617 43.041 26.2037 43.601 25.5177 43.93C24.732 44.3057 23.8721 44.5007 23.0012 44.5007C22.1303 44.5007 21.2704 44.3057 20.4847 43.93C19.7963 43.6033 19.1383 43.0433 17.8247 41.921C17.4854 41.616 17.1294 41.3301 16.7583 41.0647C16.1171 40.6349 15.397 40.3367 14.6397 40.1873C14.1901 40.1125 13.7368 40.0626 13.2817 40.038C11.5573 39.9027 10.6963 39.8327 9.97768 39.5783C9.15682 39.2887 8.4112 38.819 7.79548 38.2036C7.17977 37.5883 6.70956 36.843 6.41934 36.0223C6.16501 35.3037 6.09734 34.4403 5.95968 32.7183C5.93637 32.2625 5.88729 31.8083 5.81268 31.358C5.663 30.6015 5.3648 29.8822 4.93534 29.2417C4.74868 28.9617 4.52468 28.7003 4.07901 28.1753C2.95901 26.8593 2.39668 26.2013 2.06768 25.5153C1.69196 24.7296 1.49695 23.8698 1.49695 22.9988C1.49695 22.1279 1.69196 21.2681 2.06768 20.4823C2.39668 19.7963 2.95668 19.1383 4.07901 17.8223C4.52468 17.2973 4.74868 17.036 4.93534 16.756C5.3648 16.1155 5.663 15.3962 5.81268 14.6397C5.87801 14.3083 5.90601 13.9653 5.95968 13.2793C6.09734 11.5573 6.16501 10.6963 6.41934 9.97534C6.70981 9.15444 7.18037 8.40897 7.7965 7.79364C8.41264 7.17831 9.15872 6.70873 9.98001 6.41934C10.6987 6.16501 11.5597 6.09501 13.284 5.95968C13.97 5.90368 14.3107 5.87568 14.642 5.81034C15.3993 5.66096 16.1195 5.36275 16.7607 4.93301C17.0407 4.74634 17.2997 4.52468 17.8223 4.07668Z" stroke="#566AED" stroke-width="2.5"/>
<path d="M14.8334 24.1666L19.5 28.8333L31.1667 17.1666" stroke="#566AED" stroke-width="2.5" stroke-linecap="round" stroke-linejoin="round"/>
</svg>
