<svg width="50" height="50" viewBox="0 0 50 50" fill="none" xmlns="http://www.w3.org/2000/svg">
<path d="M1.66667 27.3333H9.04C11.1517 27.3333 12.2087 27.3333 13.1373 27.7603C14.066 28.1873 14.752 28.9899 16.1263 30.5929L17.5403 32.2403C18.9147 33.8433 19.6007 34.6459 20.5293 35.0729C21.458 35.4999 22.5127 35.4999 24.6267 35.4999H25.3733C27.485 35.4999 28.542 35.4999 29.4707 35.0729C30.3993 34.6459 31.0853 33.8433 32.4597 32.2403L33.8737 30.5929C35.248 28.9899 35.934 28.1873 36.8627 27.7603C37.7913 27.3333 38.846 27.3333 40.96 27.3333H48.3333M15.6667 13.3333H34.3333M20.3333 21.4999H29.6667" stroke="#566AED" stroke-width="2.5" stroke-linecap="round"/>
<path d="M48.3333 25C48.3333 35.9993 48.3333 41.499 44.915 44.915C41.5013 48.3333 35.9993 48.3333 25 48.3333C14.0007 48.3333 8.501 48.3333 5.08267 44.915C1.66667 41.5013 1.66667 35.9993 1.66667 25C1.66667 14.0006 1.66667 8.50096 5.08267 5.08263C8.50334 1.66663 14.0007 1.66663 25 1.66663C35.9993 1.66663 41.499 1.66663 44.915 5.08263C47.1877 7.35529 47.9483 10.5496 48.205 15.6666" stroke="#566AED" stroke-width="2.5" stroke-linecap="round"/>
</svg>
