<svg width="72" height="69" viewBox="0 0 72 69" fill="none" xmlns="http://www.w3.org/2000/svg">
<circle cx="31" cy="38" r="31" fill="#ECE7FB" fill-opacity="0.7"/>
<path d="M38.8223 9.07668C40.1383 7.95668 40.7963 7.39668 41.4823 7.06768C42.2681 6.69196 43.1279 6.49695 43.9988 6.49695C44.8698 6.49695 45.7296 6.69196 46.5153 7.06768C47.2037 7.39434 47.8617 7.95434 49.1753 9.07668C49.7003 9.52468 49.9617 9.74634 50.2417 9.93301C50.8829 10.3628 51.603 10.661 52.3603 10.8103C52.6893 10.8757 53.0323 10.9037 53.7183 10.9597C55.4427 11.095 56.3037 11.165 57.0223 11.4193C57.8432 11.709 58.5888 12.1787 59.2045 12.7941C59.8203 13.4094 60.2905 14.1547 60.5807 14.9753C60.835 15.6963 60.9027 16.5573 61.0403 18.2793C61.094 18.9653 61.122 19.3083 61.1873 19.6397C61.3367 20.3957 61.6354 21.1167 62.0647 21.756C62.2514 22.036 62.4753 22.2973 62.921 22.8223C64.041 24.1383 64.6034 24.7963 64.9324 25.4823C65.3081 26.2681 65.5031 27.1279 65.5031 27.9988C65.5031 28.8698 65.3081 29.7296 64.9324 30.5153C64.6057 31.2013 64.0433 31.8593 62.921 33.1753C62.6159 33.5146 62.33 33.8706 62.0647 34.2417C61.6351 34.8821 61.3368 35.6015 61.1873 36.358C61.122 36.6893 61.094 37.0323 61.0403 37.7183C60.9027 39.4403 60.835 40.3037 60.5807 41.0223C60.2905 41.843 59.8203 42.5883 59.2045 43.2036C58.5888 43.819 57.8432 44.2887 57.0223 44.5783C56.3037 44.835 55.4427 44.9027 53.7183 45.038C53.0323 45.094 52.6917 45.122 52.3603 45.1873C51.603 45.3367 50.8829 45.6349 50.2417 46.0647C49.8714 46.3301 49.5161 46.616 49.1777 46.921C47.8617 48.041 47.2037 48.601 46.5177 48.93C45.732 49.3057 44.8721 49.5007 44.0012 49.5007C43.1303 49.5007 42.2704 49.3057 41.4847 48.93C40.7963 48.6033 40.1383 48.0433 38.8247 46.921C38.4854 46.616 38.1294 46.3301 37.7583 46.0647C37.1171 45.6349 36.397 45.3367 35.6397 45.1873C35.1901 45.1125 34.7368 45.0626 34.2817 45.038C32.5573 44.9027 31.6963 44.8327 30.9777 44.5783C30.1568 44.2887 29.4112 43.819 28.7955 43.2036C28.1798 42.5883 27.7096 41.843 27.4193 41.0223C27.165 40.3037 27.0973 39.4403 26.9597 37.7183C26.9364 37.2625 26.8873 36.8083 26.8127 36.358C26.663 35.6015 26.3648 34.8822 25.9353 34.2417C25.7487 33.9617 25.5247 33.7003 25.079 33.1753C23.959 31.8593 23.3967 31.2013 23.0677 30.5153C22.692 29.7296 22.4969 28.8698 22.4969 27.9988C22.4969 27.1279 22.692 26.2681 23.0677 25.4823C23.3967 24.7963 23.9567 24.1383 25.079 22.8223C25.5247 22.2973 25.7487 22.036 25.9353 21.756C26.3648 21.1155 26.663 20.3962 26.8127 19.6397C26.878 19.3083 26.906 18.9653 26.9597 18.2793C27.0973 16.5573 27.165 15.6963 27.4193 14.9753C27.7098 14.1544 28.1804 13.409 28.7965 12.7936C29.4126 12.1783 30.1587 11.7087 30.98 11.4193C31.6987 11.165 32.5597 11.095 34.284 10.9597C34.97 10.9037 35.3107 10.8757 35.642 10.8103C36.3993 10.661 37.1195 10.3628 37.7607 9.93301C38.0407 9.74634 38.2997 9.52468 38.8223 9.07668Z" stroke="#566AED" stroke-width="2.5"/>
<path d="M35.8334 29.1666L40.5 33.8333L52.1667 22.1666" stroke="#566AED" stroke-width="2.5" stroke-linecap="round" stroke-linejoin="round"/>
</svg>
