<svg width="72" height="69" viewBox="0 0 72 69" fill="none" xmlns="http://www.w3.org/2000/svg">
<circle cx="31" cy="38" r="31" fill="#ECE7FB" fill-opacity="0.7"/>
<path d="M53.3333 9.33325C58.4083 9.36125 61.157 9.58758 62.949 11.3796C65 13.4306 65 16.7299 65 23.3286V37.3286C65 43.9296 65 47.2289 62.949 49.2799C60.9003 51.3286 57.5987 51.3286 51 51.3286H37C30.4013 51.3286 27.0997 51.3286 25.051 49.2799C23 47.2266 23 43.9296 23 37.3286V23.3286C23 16.7299 23 13.4306 25.051 11.3796C26.843 9.58758 29.5917 9.36125 34.6667 9.33325" stroke="#566AED" stroke-width="2.5"/>
<path d="M37 31.2666L40.9993 35L51 25.6666" stroke="#566AED" stroke-width="2.5" stroke-linecap="round" stroke-linejoin="round"/>
<path d="M34.6667 8.16663C34.6667 7.23837 35.0354 6.34813 35.6918 5.69175C36.3482 5.03538 37.2384 4.66663 38.1667 4.66663H49.8334C50.7616 4.66663 51.6518 5.03538 52.3082 5.69175C52.9646 6.34813 53.3334 7.23837 53.3334 8.16663V10.5C53.3334 11.4282 52.9646 12.3185 52.3082 12.9748C51.6518 13.6312 50.7616 14 49.8334 14H38.1667C37.2384 14 36.3482 13.6312 35.6918 12.9748C35.0354 12.3185 34.6667 11.4282 34.6667 10.5V8.16663Z" stroke="#566AED" stroke-width="2.5"/>
</svg>
