<svg width="72" height="69" viewBox="0 0 72 69" fill="none" xmlns="http://www.w3.org/2000/svg">
<circle cx="31" cy="38" r="31" fill="#ECE7FB" fill-opacity="0.7"/>
<path d="M20.6667 30.3333H28.04C30.1517 30.3333 31.2087 30.3333 32.1373 30.7603C33.066 31.1873 33.752 31.9899 35.1263 33.5929L36.5403 35.2403C37.9147 36.8433 38.6007 37.6459 39.5293 38.0729C40.458 38.4999 41.5127 38.4999 43.6267 38.4999H44.3733C46.485 38.4999 47.542 38.4999 48.4707 38.0729C49.3993 37.6459 50.0853 36.8433 51.4597 35.2403L52.8737 33.5929C54.248 31.9899 54.934 31.1873 55.8627 30.7603C56.7913 30.3333 57.846 30.3333 59.96 30.3333H67.3333M34.6667 16.3333H53.3333M39.3333 24.4999H48.6667" stroke="#566AED" stroke-width="2.5" stroke-linecap="round"/>
<path d="M67.3333 28C67.3333 38.9993 67.3333 44.499 63.915 47.915C60.5013 51.3333 54.9993 51.3333 44 51.3333C33.0007 51.3333 27.501 51.3333 24.0827 47.915C20.6667 44.5013 20.6667 38.9993 20.6667 28C20.6667 17.0006 20.6667 11.501 24.0827 8.08263C27.5033 4.66663 33.0007 4.66663 44 4.66663C54.9993 4.66663 60.499 4.66663 63.915 8.08263C66.1877 10.3553 66.9483 13.5496 67.205 18.6666" stroke="#566AED" stroke-width="2.5" stroke-linecap="round"/>
</svg>
